<svg xmlns:xlink="http://www.w3.org/1999/xlink" xmlns="http://www.w3.org/2000/svg" width="356" height="239" viewBox="0 0 356 239" fill="none">
<g clip-path="url(#clip0)">
<path d="M96.413 238.979C51.923 238.979 29.523 222.41 7.86301 206.38C-12.967 190.96 -32.647 176.4 -72.737 176.4C-112.817 176.4 -132.497 190.96 -153.327 206.38C-156.297 208.58 -160.487 207.949 -162.687 204.979C-164.887 202.009 -164.257 197.82 -161.287 195.62C-139.627 179.59 -117.227 163.02 -72.737 163.02C-28.247 163.02 -5.84698 179.59 15.813 195.62C36.643 211.04 56.323 225.599 96.413 225.599C136.493 225.599 156.173 211.04 177.013 195.62C198.673 179.59 221.073 163.02 265.573 163.02C310.053 163.02 333.103 180.059 353.433 195.099C356.403 197.299 357.033 201.49 354.833 204.46C352.633 207.43 348.443 208.059 345.473 205.859C335.593 198.559 325.383 191 312.663 185.42C298.823 179.35 283.423 176.4 265.573 176.4C225.493 176.4 205.813 190.96 184.973 206.38C163.303 222.41 140.903 238.979 96.413 238.979Z" fill="url(#paint0_linear)"/>
<path d="M96.413 157.47C51.923 157.47 29.523 140.9 7.86301 124.87C-12.967 109.45 -32.647 94.8898 -72.737 94.8898C-112.817 94.8898 -132.497 109.45 -153.327 124.87C-156.297 127.07 -160.487 126.44 -162.687 123.47C-164.887 120.5 -164.257 116.31 -161.287 114.11C-139.627 98.0797 -117.227 81.5098 -72.737 81.5098C-28.247 81.5098 -5.84698 98.0797 15.813 114.11C36.643 129.53 56.323 144.09 96.413 144.09C136.493 144.09 156.173 129.53 177.013 114.11C198.673 98.0797 221.073 81.5098 265.573 81.5098C310.053 81.5098 333.103 98.5498 353.433 113.59C356.403 115.79 357.033 119.98 354.833 122.95C352.633 125.92 348.443 126.55 345.473 124.35C335.593 117.05 325.383 109.49 312.663 103.91C298.823 97.8398 283.423 94.8898 265.573 94.8898C225.493 94.8898 205.813 109.45 184.973 124.87C163.303 140.9 140.903 157.47 96.413 157.47Z" fill="url(#paint1_linear)"/>
<path d="M96.413 75.96C51.923 75.96 29.523 59.3899 7.86301 43.3599C-12.967 27.9399 -32.647 13.3799 -72.737 13.3799C-112.817 13.3799 -132.497 27.9399 -153.327 43.3599C-156.297 45.5599 -160.487 44.93 -162.687 41.96C-164.887 38.99 -164.257 34.7999 -161.287 32.5999C-139.627 16.5699 -117.227 0 -72.737 0C-28.247 0 -5.84698 16.5699 15.813 32.5999C36.643 48.0199 56.323 62.58 96.413 62.58C136.493 62.58 156.173 48.0199 177.013 32.5999C198.673 16.5699 221.073 0 265.573 0C310.053 0 333.103 17.04 353.433 32.08C356.403 34.28 357.033 38.47 354.833 41.44C352.633 44.41 348.443 45.04 345.473 42.84C335.593 35.54 325.383 27.98 312.663 22.4C298.823 16.33 283.423 13.3799 265.573 13.3799C225.493 13.3799 205.813 27.9399 184.973 43.3599C163.303 59.3899 140.903 75.96 96.413 75.96Z" fill="url(#paint2_linear)"/>
</g>
<defs>
<linearGradient id="paint0_linear" x1="-164.003" y1="201" x2="356.135" y2="201" gradientUnits="userSpaceOnUse">
<stop offset="0.00317421" stop-color="#FFC942"/>
<stop offset="0.8555" stop-color="#AA7B00" stop-opacity="0"/>
</linearGradient>
<linearGradient id="paint1_linear" x1="-164.003" y1="119.491" x2="356.135" y2="119.491" gradientUnits="userSpaceOnUse">
<stop stop-color="#FF3674"/>
<stop offset="0.8829" stop-color="#FF00F0" stop-opacity="0"/>
</linearGradient>
<linearGradient id="paint2_linear" x1="-164.003" y1="37.9819" x2="356.135" y2="37.9819" gradientUnits="userSpaceOnUse">
<stop offset="0.2795" stop-color="#20C9EC"/>
<stop offset="0.8461" stop-color="#1FFFF7" stop-opacity="0"/>
</linearGradient>
<clipPath id="clip0">
<rect width="356" height="239" fill="white"/>
</clipPath>
</defs>
</svg>