<svg xmlns="http://www.w3.org/2000/svg" width="122" height="56" viewBox="0 0 122 56" fill="none" class="injected-svg" data-src="/images/logos/logo-details-yellow.svg" xmlns:xlink="http://www.w3.org/1999/xlink">
<path d="M44.2594 55.9699C43.6495 55.9699 43.1736 55.4777 43.1736 54.8494V48.1937C43.1736 46.105 41.4717 44.407 39.3812 44.407C37.3043 44.407 35.6172 46.105 35.6172 48.1937V54.8494C35.6172 55.4777 35.1265 55.9699 34.5018 55.9699C33.8931 55.9699 33.416 55.4777 33.416 54.8494V36.1721C33.416 35.571 33.9017 35.0801 34.5018 35.0801C35.1265 35.0801 35.6172 35.5599 35.6172 36.1721V42.9144C35.6172 43.0306 35.6786 43.1357 35.7807 43.1914C35.8274 43.2161 35.8779 43.2285 35.9283 43.2285C35.9885 43.2285 36.0476 43.2112 36.1004 43.1765C37.0854 42.5261 38.1884 42.1959 39.3812 42.1959C42.6854 42.1959 45.3735 44.8868 45.3735 48.1949V54.8507C45.3735 55.4678 44.8743 55.9699 44.2594 55.9699Z" fill="#FFCC00"></path>
<path d="M55.6726 55.9693C51.8962 55.9693 48.8232 52.8801 48.8232 49.0823C48.8232 45.2845 51.8962 42.1953 55.6726 42.1953C58.9928 42.1953 62.522 44.6093 62.522 49.0823C62.522 49.6945 62.0313 50.1743 61.4067 50.1743H51.5654C51.4634 50.1743 51.3687 50.225 51.3109 50.3079C51.2531 50.3907 51.2371 50.4958 51.2703 50.5923C51.9294 52.4869 53.699 53.7582 55.6726 53.7582C56.4584 53.7582 57.661 53.6555 59.0383 52.7614C59.1674 52.6761 59.3125 52.6328 59.4674 52.6328C59.8646 52.6328 60.2778 52.9061 60.4721 53.2969C60.7512 53.8806 60.3836 54.4668 59.8966 54.7871C58.132 55.9693 56.7375 55.9693 55.814 55.9693H55.6726ZM55.6726 44.4065C53.7026 44.4065 51.9344 45.6666 51.2703 47.5414C51.2359 47.6379 51.2506 47.7442 51.3097 47.8283C51.3687 47.9112 51.4634 47.9607 51.5654 47.9607H59.8093C59.9089 47.9607 60.0011 47.9124 60.0601 47.8333C60.1179 47.7541 60.1364 47.6503 60.1081 47.555C59.4146 45.2313 57.2847 44.4065 55.6726 44.4065Z" fill="#FFCC00"></path>
<path d="M78.5235 55.9416C78.1078 55.9416 77.4672 55.4605 77.4672 54.8212C77.4672 54.6987 77.3971 54.5875 77.2864 54.5367C77.2433 54.517 77.1991 54.5071 77.1548 54.5071C77.0823 54.5071 77.0122 54.5318 76.9544 54.58C75.8501 55.51 74.5737 55.9416 72.9333 55.9416C68.997 55.9416 66.0273 53.0428 66.0273 49.1968C66.0273 45.3025 69.061 42.2529 72.9333 42.2529C76.7564 42.2529 79.6388 45.2382 79.6388 49.1968V54.8212C79.6376 55.4803 79.1801 55.9416 78.5235 55.9416ZM72.9321 44.4369C70.3657 44.4369 68.1977 46.6171 68.1977 49.198C68.1977 51.7134 70.3214 53.7589 72.9321 53.7589C75.5169 53.7589 77.4672 51.7988 77.4672 49.198C77.4672 46.5726 75.4332 44.4369 72.9321 44.4369Z" fill="#FFCC00"></path>
<path d="M84.1727 55.9994C83.548 55.9994 83.0586 55.5072 83.0586 54.879V36.2004C83.0586 35.5882 83.5468 35.1084 84.1727 35.1084C84.7703 35.1084 85.2585 35.5981 85.2585 36.2004V54.8778C85.2585 55.5072 84.7814 55.9994 84.1727 55.9994Z" fill="#FFCC00"></path>
<path d="M93.3022 55.9995C92.7132 55.9995 92.2176 55.4863 92.2176 54.8791V44.7508C92.2176 44.5777 92.0774 44.4367 91.9053 44.4367H89.8505C89.2614 44.4367 88.7646 43.9235 88.7646 43.3163C88.7646 42.714 89.2504 42.2243 89.8505 42.2243H91.9053C92.0774 42.2243 92.2176 42.0846 92.2176 41.9102V36.1721C92.2176 35.571 92.7033 35.0801 93.3022 35.0801C93.9269 35.0801 94.4163 35.5599 94.4163 36.1721V41.9102C94.4163 42.0846 94.5553 42.2243 94.7286 42.2243H96.7539C97.3786 42.2243 97.868 42.7041 97.868 43.3163C97.868 43.9334 97.3688 44.4367 96.7539 44.4367H94.7286C94.5553 44.4367 94.4163 44.5777 94.4163 44.7508V54.8791C94.4163 55.4962 93.917 55.9995 93.3022 55.9995Z" fill="#FFCC00"></path>
<path d="M112.217 55.9699C111.609 55.9699 111.132 55.4777 111.132 54.8494V48.1937C111.132 46.105 109.431 44.407 107.339 44.407C105.264 44.407 103.575 46.105 103.575 48.1937V54.8494C103.575 55.4777 103.086 55.9699 102.46 55.9699C101.852 55.9699 101.374 55.4777 101.374 54.8494V36.1721C101.374 35.571 101.861 35.0801 102.46 35.0801C103.085 35.0801 103.575 35.5599 103.575 36.1721V42.9144C103.575 43.0306 103.638 43.1357 103.739 43.1914C103.785 43.2161 103.836 43.2285 103.888 43.2285C103.947 43.2285 104.006 43.2112 104.058 43.1765C105.043 42.5261 106.148 42.1959 107.339 42.1959C110.645 42.1959 113.333 44.8868 113.333 48.1949V54.8507C113.332 55.4678 112.831 55.9699 112.217 55.9699Z" fill="#FFCC00"></path>
<path d="M27.8402 31.1149C26.3547 31.1149 25.1447 29.8807 25.1447 28.3633V17.8294C25.1447 15.8668 23.5387 14.2715 21.5651 14.2715C19.5902 14.2715 17.9854 15.868 17.9854 17.8294V28.3633C17.9854 29.8807 16.7754 31.1149 15.29 31.1149C13.7799 31.1149 12.5514 29.8807 12.5514 28.3633V17.8294C12.5514 15.8668 10.9639 14.2715 9.0124 14.2715C7.03751 14.2715 5.43277 15.868 5.43277 17.8294V28.3633C5.43277 29.8807 4.22398 31.1149 2.73729 31.1149C1.20264 31.1149 0 29.9054 0 28.3633V17.8294C0 12.8543 4.04445 8.80664 9.0124 8.80664C11.3783 8.80664 13.6274 9.73785 15.29 11.3839C16.95 9.73785 19.1991 8.80664 21.5651 8.80664C26.5355 8.80664 30.5787 12.8543 30.5787 17.8294C30.5787 17.8764 30.5787 17.9407 30.5676 18.0149C30.5787 18.0903 30.5787 18.1534 30.5787 18.2065V28.3633C30.5775 29.8794 29.349 31.1149 27.8402 31.1149Z" fill="#FFFFFF"></path>
<path d="M52.7369 30.988C51.8306 30.988 50.8161 30.3326 50.3452 29.3655C48.7207 30.4686 46.8651 30.988 44.5902 30.988C38.3249 30.988 33.416 26.1811 33.416 20.0435C33.416 13.7415 38.3249 8.80469 44.5902 8.80469C50.6932 8.80469 55.4742 13.7415 55.4742 20.0435V28.2352C55.4754 29.8058 54.2986 30.988 52.7369 30.988ZM44.5914 14.2275C41.457 14.2275 38.8082 16.8913 38.8082 20.0435C38.8082 23.0894 41.4028 25.5665 44.5914 25.5665C47.7222 25.5665 50.0832 23.1921 50.0832 20.0435C50.0832 16.8368 47.6202 14.2275 44.5914 14.2275Z" fill="#FFFFFF"></path>
<path d="M60.967 31.0719C59.4324 31.0719 58.2285 29.8624 58.2285 28.3191V11.4744C58.2285 9.98055 59.4557 8.76367 60.967 8.76367C62.4525 8.76367 63.6625 9.98055 63.6625 11.4744V28.3191C63.6625 29.8377 62.4537 31.0719 60.967 31.0719Z" fill="#FFFFFF"></path>
<path d="M77.5088 30.9464C71.3923 30.9464 66.417 25.9428 66.417 19.7929C66.417 13.6417 71.3923 8.63812 77.5088 8.63812C79.5021 8.63812 81.4696 9.18349 83.1666 10.1901V2.71077C83.1666 1.21688 84.3766 0 85.8633 0C87.3721 0 88.6006 1.21688 88.6006 2.71077V19.7929C88.6006 25.944 83.6253 30.9464 77.5088 30.9464ZM77.5088 14.103C74.3891 14.103 71.851 16.6554 71.851 19.7929C71.851 22.9315 74.3891 25.484 77.5088 25.484C80.6285 25.484 83.1666 22.9315 83.1666 19.7929V19.7508C83.1666 16.6369 80.6298 14.103 77.5088 14.103Z" fill="#FFFFFF"></path>
<path d="M110.593 30.988C109.687 30.988 108.673 30.3326 108.202 29.3655C106.577 30.4686 104.722 30.988 102.447 30.988C96.1814 30.988 91.2725 26.1811 91.2725 20.0435C91.2725 13.7415 96.1814 8.80469 102.447 8.80469C108.55 8.80469 113.331 13.7415 113.331 20.0435V28.2352C113.331 29.8058 112.155 30.988 110.593 30.988ZM102.448 14.2275C99.3134 14.2275 96.6647 16.8913 96.6647 20.0435C96.6647 23.0894 99.2581 25.5665 102.448 25.5665C105.579 25.5665 107.94 23.1921 107.94 20.0435C107.938 16.8368 105.477 14.2275 102.448 14.2275Z" fill="#FFFFFF"></path>
<path d="M60.9695 5.50688C59.4348 5.50688 58.2334 4.23188 58.2334 2.75282C58.2334 1.27624 59.4348 0 60.9695 0C62.4377 0 63.6416 1.27624 63.6416 2.75282C63.6416 4.23188 62.4389 5.50688 60.9695 5.50688Z" fill="#FFFFFF"></path>
<path d="M119.622 23.1717C120.93 23.1717 122 22.0364 122 20.7206C122 19.4048 120.93 18.2695 119.622 18.2695C118.256 18.2695 117.185 19.4048 117.185 20.7206C117.186 22.0364 118.256 23.1717 119.622 23.1717Z" fill="#FF0073"></path>
<path d="M119.78 26.8387C119.944 26.8486 120.106 26.8733 120.265 26.9166C120.957 27.1046 121.526 27.6005 121.811 28.2633C121.913 28.502 121.978 28.7518 121.991 29.0128C121.993 29.0227 121.993 29.3838 121.991 29.3974C121.985 29.4988 121.983 29.6002 121.975 29.6991C121.967 29.8129 121.957 29.9254 121.945 30.038C121.924 30.2086 121.902 30.3793 121.876 30.5499C121.854 30.6897 121.829 30.8307 121.798 30.9679C121.754 31.1584 121.702 31.3451 121.654 31.5343C121.549 31.9474 121.405 32.3456 121.228 32.7327C120.953 33.3362 120.618 33.9001 120.222 34.4306C119.747 35.0663 119.194 35.6277 118.572 36.1199C118.346 36.298 118.115 36.4674 117.872 36.6207C117.566 36.8137 117.25 36.9856 116.922 37.1426C116.613 37.291 116.294 37.4184 115.968 37.5297C115.554 37.6707 115.131 37.7795 114.699 37.8574C114.539 37.8871 114.376 37.9118 114.213 37.9353C114.1 37.9514 113.986 37.965 113.872 37.9724C113.798 37.9774 113.601 38.007 113.345 38.0169C113.176 38.0231 112.588 38.0169 112.043 37.8203C111.746 37.714 111.491 37.5186 111.263 37.2799C110.866 36.8631 110.649 36.366 110.609 35.7897C110.607 35.7526 110.607 35.5238 110.609 35.4892C110.614 35.3729 110.63 35.2567 110.656 35.1429C110.783 34.5703 111.078 34.1041 111.544 33.7504C111.939 33.4512 112.385 33.2966 112.878 33.278C113.012 33.2731 113.146 33.2718 113.281 33.2706C113.454 33.2694 113.626 33.2496 113.794 33.2199C114.257 33.1408 114.696 32.9936 115.107 32.771C115.212 32.7141 115.318 32.6572 115.414 32.588C115.549 32.489 115.679 32.3827 115.808 32.2739C116.051 32.071 116.272 31.846 116.465 31.5925C116.824 31.1225 117.049 30.5895 117.198 30.0194C117.263 29.7634 117.286 29.4988 117.3 29.2329C117.305 29.129 117.31 29.0264 117.32 28.9237C117.343 28.6925 117.405 28.4723 117.496 28.2596C117.84 27.4595 118.613 26.8882 119.528 26.8399C119.542 26.8375 119.764 26.8375 119.78 26.8387Z" fill="#FF0073"></path>
</svg>