<svg xmlns="http://www.w3.org/2000/svg" width="162" height="40" viewBox="0 0 162 40" fill="none" class="injected-svg" data-src="/images/logos/ihealth-logo.svg" xmlns:xlink="http://www.w3.org/1999/xlink">
<g clip-path="url(#clip0-115)" fill="none">
<path d="M22.0334 30.2104H26.2432V20.3905H22.0334V30.2104Z" fill="#B80F7E"></path>
<path d="M51.5992 31.5923C51.225 31.9547 50.7876 32.137 50.2871 32.137C49.7867 32.137 49.3493 31.9547 48.9751 31.5923C48.6009 31.2299 48.4138 30.7856 48.4138 30.2642V16.2988C48.4138 15.7774 48.6009 15.3355 48.9751 14.9708C49.3493 14.6084 49.7867 14.426 50.2871 14.426C50.7876 14.426 51.225 14.6084 51.5992 14.9708C51.9734 15.3355 52.1605 15.7774 52.1605 16.2988V30.2642C52.1605 30.7856 51.9734 31.2299 51.5992 31.5923ZM48.9751 7.13819C49.3493 6.77344 49.7867 6.59109 50.2871 6.59109C50.7876 6.59109 51.225 6.77344 51.5992 7.13819C51.9734 7.50059 52.1605 7.94248 52.1605 8.46622C52.1605 8.98761 51.9734 9.43186 51.5992 9.79427C51.225 10.1567 50.7876 10.339 50.2871 10.339C49.7867 10.339 49.3493 10.1567 48.9751 9.79427C48.6009 9.43186 48.4138 8.98761 48.4138 8.46622C48.4138 7.94248 48.6009 7.50059 48.9751 7.13819Z" fill="#2B45D4"></path>
<path d="M61.8034 31.5923C61.4386 31.9547 60.9966 32.137 60.475 32.137C59.9511 32.137 59.5091 31.9547 59.1443 31.5923C58.7818 31.2299 58.5994 30.7856 58.5994 30.2642V9.14661C58.5994 8.62522 58.7818 8.18099 59.1443 7.81858C59.5091 7.45618 59.9511 7.27379 60.475 7.27379C60.9966 7.27379 61.4386 7.45618 61.8034 7.81858C62.1659 8.18099 62.3483 8.62522 62.3483 9.14661V17.1171C62.3483 17.3206 62.4512 17.4234 62.6547 17.4234H72.6037C72.8072 17.4234 72.9101 17.3206 72.9101 17.1171V9.14661C72.9101 8.62522 73.0902 8.18099 73.455 7.81858C73.8175 7.45618 74.2596 7.27379 74.7835 7.27379C75.305 7.27379 75.7493 7.45618 76.1118 7.81858C76.4743 8.18099 76.6568 8.62522 76.6568 9.14661V30.2642C76.6568 30.7856 76.4743 31.2299 76.1118 31.5923C75.7493 31.9547 75.305 32.137 74.7835 32.137C74.2596 32.137 73.8175 31.9547 73.455 31.5923C73.0902 31.2299 72.9101 30.7856 72.9101 30.2642V20.6593C72.9101 20.4536 72.8072 20.3531 72.6037 20.3531H62.6547C62.4512 20.3531 62.3483 20.4536 62.3483 20.6593V30.2642C62.3483 30.7856 62.1659 31.2299 61.8034 31.5923Z" fill="#2B45D4"></path>
<path d="M88.7175 16.743C86.1285 16.743 84.6738 18.2745 84.3558 21.3397C84.3113 21.5454 84.4026 21.646 84.6294 21.646H92.2607C92.4431 21.646 92.5344 21.5454 92.5344 21.3397C92.3964 18.2745 91.1241 16.743 88.7175 16.743ZM89.5688 32.4783C86.7296 32.4783 84.5429 31.7068 83.011 30.1613C81.4768 28.6182 80.712 26.3245 80.712 23.2826C80.712 20.2384 81.3973 17.9471 82.7725 16.4017C84.1453 14.8585 86.1285 14.0846 88.7175 14.0846C93.4418 14.0846 95.8835 16.8552 96.0425 22.3965C96.0659 22.9413 95.8717 23.3949 95.4625 23.7573C95.0555 24.122 94.5784 24.3044 94.0335 24.3044H84.5943C84.4119 24.3044 84.323 24.3932 84.323 24.5756C84.5943 28.0734 86.4583 29.8223 89.9103 29.8223C91.1147 29.8223 92.2958 29.6282 93.4535 29.2424C93.7949 29.1279 94.1107 29.1746 94.4077 29.378C94.7024 29.5838 94.8497 29.8667 94.8497 30.2291C94.8497 30.6617 94.7141 31.0474 94.4405 31.3888C94.1692 31.7278 93.816 31.9546 93.3856 32.0692C92.1368 32.3427 90.8645 32.4783 89.5688 32.4783Z" fill="#2B45D4"></path>
<path d="M108.274 23.2125C106.41 23.2125 105.007 23.5258 104.067 24.1501C103.122 24.7744 102.652 25.6207 102.652 26.6869C102.652 27.5286 102.902 28.2207 103.402 28.7655C103.901 29.3102 104.502 29.5838 105.208 29.5838C106.707 29.5838 107.905 29.1115 108.803 28.1692C109.698 27.227 110.147 25.9387 110.147 24.3044V23.4861C110.147 23.3037 110.045 23.2125 109.841 23.2125H108.274ZM104.354 32.4783C102.811 32.4783 101.546 31.978 100.556 30.9796C99.5693 29.9813 99.0735 28.6626 99.0735 27.0283C99.0735 25.0315 99.8359 23.4814 101.356 22.3778C102.879 21.2789 105.185 20.7271 108.274 20.7271H109.841C110.045 20.7271 110.147 20.6242 110.147 20.4208V20.0467C110.147 18.8426 109.862 18.0032 109.296 17.5263C108.728 17.0493 107.706 16.8108 106.23 16.8108C104.911 16.8108 103.344 17.082 101.527 17.6268C101.188 17.7414 100.863 17.6899 100.556 17.4748C100.25 17.2597 100.095 16.9698 100.095 16.6051C100.095 16.1515 100.233 15.7423 100.505 15.3799C100.778 15.0175 101.129 14.7884 101.562 14.6995C103.197 14.2904 104.752 14.0846 106.23 14.0846C109.09 14.0846 111.055 14.5966 112.124 15.6184C113.19 16.6401 113.723 18.5129 113.723 21.2368V30.4676C113.723 30.9235 113.56 31.314 113.23 31.6437C112.9 31.9733 112.51 32.137 112.056 32.137C111.6 32.137 111.209 31.9733 110.879 31.6437C110.55 31.314 110.374 30.9235 110.351 30.4676L110.318 29.6165C110.318 29.5955 110.306 29.5838 110.283 29.5838C110.239 29.5838 110.215 29.5955 110.215 29.6165C108.899 31.5244 106.946 32.4783 104.354 32.4783Z" fill="#2B45D4"></path>
<path d="M122.838 31.5923C122.463 31.9547 122.026 32.137 121.526 32.137C121.027 32.137 120.59 31.9547 120.214 31.5923C119.839 31.2299 119.652 30.7856 119.652 30.2642V8.46622C119.652 7.94248 119.839 7.50059 120.214 7.13819C120.59 6.77344 121.027 6.59109 121.526 6.59109C122.026 6.59109 122.463 6.77344 122.838 7.13819C123.212 7.50059 123.399 7.94248 123.399 8.46622V30.2642C123.399 30.7856 123.212 31.2299 122.838 31.5923Z" fill="#2B45D4"></path>
<path d="M130.009 17.8326C129.623 17.8326 129.3 17.697 129.038 17.4234C128.779 17.1498 128.648 16.8319 128.648 16.4695C128.648 16.1071 128.779 15.7891 129.038 15.5155C129.3 15.2443 129.623 15.1063 130.009 15.1063H131.917C132.123 15.1063 132.224 15.0058 132.224 14.8001V10.4068C132.224 9.90643 132.394 9.48793 132.736 9.14657C133.077 8.80521 133.496 8.63687 133.996 8.63687C134.494 8.63687 134.92 8.80521 135.273 9.14657C135.626 9.48793 135.802 9.90643 135.802 10.4068V14.8001C135.802 15.0058 135.905 15.1063 136.108 15.1063H140.57C140.956 15.1063 141.281 15.2443 141.543 15.5155C141.803 15.7891 141.934 16.1071 141.934 16.4695C141.934 16.8319 141.803 17.1498 141.543 17.4234C141.281 17.697 140.956 17.8326 140.57 17.8326H136.108C135.905 17.8326 135.802 17.9354 135.802 18.1388V26.0065C135.802 27.5496 135.984 28.5621 136.347 29.0367C136.709 29.5137 137.437 29.7521 138.526 29.7521C139.05 29.7521 139.548 29.7194 140.026 29.6516C140.39 29.6048 140.713 29.6843 140.998 29.8901C141.281 30.0935 141.424 30.367 141.424 30.7061C141.424 31.1152 141.286 31.48 141.015 31.7956C140.741 32.1159 140.402 32.296 139.993 32.3427C139.039 32.4316 138.323 32.4783 137.846 32.4783C135.755 32.4783 134.296 32.0341 133.468 31.1503C132.637 30.2642 132.224 28.6626 132.224 26.3479V18.1388C132.224 17.9354 132.123 17.8326 131.917 17.8326H130.009Z" fill="#2B45D4"></path>
<path d="M150.059 31.6273C149.708 31.9663 149.282 32.137 148.782 32.137C148.281 32.137 147.863 31.9663 147.521 31.6273C147.18 31.286 147.011 30.8651 147.011 30.3671V8.36335C147.011 7.863 147.18 7.44448 147.521 7.10311C147.863 6.76175 148.281 6.59109 148.782 6.59109C149.282 6.59109 149.708 6.76175 150.059 7.10311C150.412 7.44448 150.587 7.863 150.587 8.36335V16.6051C150.587 16.6285 150.599 16.6402 150.623 16.6402C150.644 16.6402 150.667 16.6285 150.69 16.6051C152.281 14.9264 154.063 14.0847 156.039 14.0847C158.106 14.0847 159.617 14.6598 160.569 15.8055C161.523 16.9535 162 18.8777 162 21.5782V30.3998C162 30.8768 161.83 31.286 161.491 31.6273C161.149 31.9663 160.74 32.137 160.263 32.137C159.786 32.137 159.379 31.9663 159.037 31.6273C158.696 31.286 158.525 30.8768 158.525 30.3998V22.2609C158.525 20.1473 158.275 18.7398 157.777 18.036C157.276 17.3323 156.357 16.9815 155.017 16.9815C153.972 16.9815 152.973 17.4749 152.019 18.4615C151.065 19.4506 150.587 20.4887 150.587 21.5782V30.3671C150.587 30.8651 150.412 31.286 150.059 31.6273Z" fill="#2B45D4"></path>
<path d="M7.89796 36.2591C7.89796 36.5186 7.68747 36.7267 7.43021 36.7267H3.74199C3.48473 36.7267 3.27424 36.5186 3.27424 36.2591V25.4103C3.27424 25.2841 3.32569 25.1648 3.41456 25.076L7.10279 21.452C7.23609 21.321 7.43721 21.2813 7.61028 21.3538C7.78568 21.4286 7.89796 21.5969 7.89796 21.7863V36.2591ZM9.57952 14.426L0.280649 23.5679C0.100566 23.7409 0 23.9841 0 24.2343V39.0648C0 39.5815 0.418635 40 0.935497 40H10.2367C10.7536 40 11.1722 39.5815 11.1722 39.0648V15.0924C11.1722 14.5055 10.6904 14.1548 10.2273 14.1548C10.0589 14.1548 9.80872 14.2015 9.57952 14.426Z" fill="#FF0073"></path>
<path d="M20.5642 36.2591C20.5642 36.5186 20.356 36.7267 20.0964 36.7267H16.4106C16.151 36.7267 15.9428 36.5186 15.9428 36.2591V11.2556C15.9428 11.1293 15.9919 11.01 16.0808 10.9212L19.769 7.29716C19.9046 7.16389 20.1058 7.1265 20.2789 7.19898C20.4519 7.27146 20.5642 7.44214 20.5642 7.63153V36.2591ZM23.8384 0.937565C23.8384 0.350704 23.359 0 22.8935 0C22.7252 0 22.4773 0.0467529 22.2481 0.27121L12.9469 9.4108C12.7692 9.58616 12.6686 9.82931 12.6686 10.0795V39.0648C12.6686 39.5815 13.0872 40 13.6041 40H22.9029C23.4198 40 23.8384 39.5815 23.8384 39.0648V0.937565Z" fill="#FF0073"></path>
<path d="M28.6102 27.0189C28.6102 26.8412 28.7107 26.6799 28.8698 26.6004C29.0288 26.5209 29.2206 26.5396 29.3609 26.6472L33.0491 29.4599C33.1661 29.5488 33.2339 29.6867 33.2339 29.8317V36.2591C33.2339 36.5186 33.0234 36.7267 32.7661 36.7267H29.0779C28.8207 36.7267 28.6102 36.5186 28.6102 36.2591V27.0189ZM35.5726 40C36.0895 40 36.5081 39.5815 36.5081 39.0648V28.4428C36.5081 28.1529 36.3701 27.8747 36.1409 27.6993L26.8398 20.6079C26.6737 20.4817 26.4796 20.4138 26.2785 20.4138C25.8248 20.4138 25.3359 20.7716 25.3359 21.3514V39.0648C25.3359 39.5815 25.7569 40 26.2714 40H35.5726Z" fill="#FF0073"></path>
</g>
<defs>
<clipPath id="clip0-115">
<rect width="162" height="40" fill="white"></rect>
</clipPath>
</defs>
</svg>