<svg xmlns="http://www.w3.org/2000/svg" width="124" height="56" viewBox="0 0 124 56" fill="none" class="injected-svg" data-src="/images/logos/logo-main.svg" xmlns:xlink="http://www.w3.org/1999/xlink">
<path d="M44.985 55.9699C44.3651 55.9699 43.8814 55.4777 43.8814 54.8494V48.1937C43.8814 46.105 42.1516 44.407 40.0269 44.407C37.9159 44.407 36.2011 46.105 36.2011 48.1937V54.8494C36.2011 55.4777 35.7024 55.9699 35.0675 55.9699C34.4488 55.9699 33.9639 55.4777 33.9639 54.8494V36.1721C33.9639 35.571 34.4576 35.0801 35.0675 35.0801C35.7024 35.0801 36.2011 35.5599 36.2011 36.1721V42.9144C36.2011 43.0306 36.2636 43.1357 36.3673 43.1914C36.4148 43.2161 36.4661 43.2285 36.5173 43.2285C36.5786 43.2285 36.6385 43.2112 36.6923 43.1765C37.6934 42.5261 38.8145 42.1959 40.0269 42.1959C43.3852 42.1959 46.1174 44.8868 46.1174 48.1949V54.8507C46.1174 55.4678 45.61 55.9699 44.985 55.9699Z" fill="black" fill-opacity="0.56"></path>
<path d="M56.5847 55.9703C52.7464 55.9703 49.623 52.8811 49.623 49.0833C49.623 45.2855 52.7464 42.1963 56.5847 42.1963C59.9593 42.1963 63.5464 44.6103 63.5464 49.0833C63.5464 49.6954 63.0477 50.1753 62.4127 50.1753H52.4102C52.3065 50.1753 52.2102 50.226 52.1515 50.3088C52.0927 50.3917 52.0765 50.4968 52.1102 50.5933C52.7802 52.4878 54.5787 53.7591 56.5847 53.7591C57.3834 53.7591 58.6057 53.6565 60.0055 52.7624C60.1368 52.677 60.2843 52.6338 60.4417 52.6338C60.8454 52.6338 61.2654 52.9071 61.4629 53.2979C61.7466 53.8816 61.3729 54.4677 60.8779 54.788C59.0844 55.9703 57.6671 55.9703 56.7284 55.9703H56.5847ZM56.5847 44.4075C54.5824 44.4075 52.7852 45.6676 52.1102 47.5424C52.0752 47.6389 52.0902 47.7452 52.1502 47.8293C52.2102 47.9122 52.3065 47.9616 52.4102 47.9616H60.7892C60.8904 47.9616 60.9842 47.9134 61.0442 47.8343C61.1029 47.7551 61.1217 47.6512 61.0929 47.556C60.388 45.2323 58.2233 44.4075 56.5847 44.4075Z" fill="black" fill-opacity="0.56"></path>
<path d="M79.8103 55.9416C79.3879 55.9416 78.7367 55.4605 78.7367 54.8212C78.7367 54.6987 78.6655 54.5875 78.553 54.5367C78.5092 54.517 78.4643 54.5071 78.4193 54.5071C78.3455 54.5071 78.2743 54.5318 78.2155 54.58C77.0932 55.51 75.7958 55.9416 74.1285 55.9416C70.1278 55.9416 67.1094 53.0428 67.1094 49.1968C67.1094 45.3025 70.1928 42.2529 74.1285 42.2529C78.0143 42.2529 80.944 45.2382 80.944 49.1968V54.8212C80.9427 55.4803 80.4778 55.9416 79.8103 55.9416ZM74.1273 44.4369C71.5188 44.4369 69.3154 46.6171 69.3154 49.198C69.3154 51.7134 71.4739 53.7589 74.1273 53.7589C76.7545 53.7589 78.7367 51.7988 78.7367 49.198C78.7367 46.5726 76.6695 44.4369 74.1273 44.4369Z" fill="black" fill-opacity="0.56"></path>
<path d="M85.5523 55.9994C84.9174 55.9994 84.4199 55.5072 84.4199 54.879V36.2004C84.4199 35.5882 84.9161 35.1084 85.5523 35.1084C86.1597 35.1084 86.6559 35.5981 86.6559 36.2004V54.8778C86.6559 55.5072 86.171 55.9994 85.5523 55.9994Z" fill="black" fill-opacity="0.56"></path>
<path d="M94.8317 55.9995C94.233 55.9995 93.7293 55.4863 93.7293 54.8791V44.7508C93.7293 44.5777 93.5868 44.4367 93.4118 44.4367H91.3233C90.7247 44.4367 90.2197 43.9235 90.2197 43.3163C90.2197 42.714 90.7134 42.2243 91.3233 42.2243H93.4118C93.5868 42.2243 93.7293 42.0846 93.7293 41.9102V36.1721C93.7293 35.571 94.223 35.0801 94.8317 35.0801C95.4666 35.0801 95.964 35.5599 95.964 36.1721V41.9102C95.964 42.0846 96.1053 42.2243 96.2815 42.2243H98.34C98.9749 42.2243 99.4724 42.7041 99.4724 43.3163C99.4724 43.9334 98.9649 44.4367 98.34 44.4367H96.2815C96.1053 44.4367 95.964 44.5777 95.964 44.7508V54.8791C95.964 55.4962 95.4566 55.9995 94.8317 55.9995Z" fill="black" fill-opacity="0.56"></path>
<path d="M114.056 55.9699C113.438 55.9699 112.953 55.4777 112.953 54.8494V48.1937C112.953 46.105 111.224 44.407 109.098 44.407C106.988 44.407 105.272 46.105 105.272 48.1937V54.8494C105.272 55.4777 104.775 55.9699 104.139 55.9699C103.521 55.9699 103.035 55.4777 103.035 54.8494V36.1721C103.035 35.571 103.53 35.0801 104.139 35.0801C104.774 35.0801 105.272 35.5599 105.272 36.1721V42.9144C105.272 43.0306 105.336 43.1357 105.439 43.1914C105.486 43.2161 105.537 43.2285 105.59 43.2285C105.65 43.2285 105.71 43.2112 105.764 43.1765C106.765 42.5261 107.887 42.1959 109.098 42.1959C112.458 42.1959 115.19 44.8868 115.19 48.1949V54.8507C115.189 55.4678 114.68 55.9699 114.056 55.9699Z" fill="black" fill-opacity="0.56"></path>
<path d="M28.2966 31.1149C26.7868 31.1149 25.5569 29.8807 25.5569 28.3633V17.8294C25.5569 15.8668 23.9246 14.2715 21.9186 14.2715C19.9113 14.2715 18.2803 15.868 18.2803 17.8294V28.3633C18.2803 29.8807 17.0504 31.1149 15.5406 31.1149C14.0058 31.1149 12.7572 29.8807 12.7572 28.3633V17.8294C12.7572 15.8668 11.1437 14.2715 9.16014 14.2715C7.15288 14.2715 5.52183 15.868 5.52183 17.8294V28.3633C5.52183 29.8807 4.29323 31.1149 2.78216 31.1149C1.22235 31.1149 0 29.9054 0 28.3633V17.8294C0 12.8543 4.11075 8.80664 9.16014 8.80664C11.5649 8.80664 13.8508 9.73785 15.5406 11.3839C17.2279 9.73785 19.5139 8.80664 21.9186 8.80664C26.9705 8.80664 31.08 12.8543 31.08 17.8294C31.08 17.8764 31.08 17.9407 31.0687 18.0149C31.08 18.0903 31.08 18.1534 31.08 18.2065V28.3633C31.0787 29.8794 29.8301 31.1149 28.2966 31.1149Z" fill="#2B45D4"></path>
<path d="M53.6015 30.988C52.6803 30.988 51.6492 30.3326 51.1705 29.3655C49.5195 30.4686 47.6335 30.988 45.3212 30.988C38.9533 30.988 33.9639 26.1811 33.9639 20.0435C33.9639 13.7415 38.9533 8.80469 45.3212 8.80469C51.5242 8.80469 56.3837 13.7415 56.3837 20.0435V28.2352C56.3849 29.8058 55.1888 30.988 53.6015 30.988ZM45.3225 14.2275C42.1366 14.2275 39.4445 16.8913 39.4445 20.0435C39.4445 23.0894 42.0816 25.5665 45.3225 25.5665C48.5046 25.5665 50.9043 23.1921 50.9043 20.0435C50.9043 16.8368 48.4009 14.2275 45.3225 14.2275Z" fill="#2B45D4"></path>
<path d="M61.966 31.0729C60.4062 31.0729 59.1826 29.8634 59.1826 28.3201V11.4754C59.1826 9.98153 60.43 8.76465 61.966 8.76465C63.4759 8.76465 64.7057 9.98153 64.7057 11.4754V28.3201C64.7057 29.8387 63.4771 31.0729 61.966 31.0729Z" fill="#2B45D4"></path>
<path d="M78.7795 30.9464C72.5627 30.9464 67.5059 25.9428 67.5059 19.7929C67.5059 13.6417 72.5627 8.63812 78.7795 8.63812C80.8055 8.63812 82.8053 9.18349 84.5301 10.1901V2.71077C84.5301 1.21688 85.7599 0 87.271 0C88.8045 0 90.0531 1.21688 90.0531 2.71077V19.7929C90.0531 25.944 84.9962 30.9464 78.7795 30.9464ZM78.7795 14.103C75.6086 14.103 73.0289 16.6554 73.0289 19.7929C73.0289 22.9315 75.6086 25.484 78.7795 25.484C81.9504 25.484 84.5301 22.9315 84.5301 19.7929V19.7508C84.5301 16.6369 81.9516 14.103 78.7795 14.103Z" fill="#2B45D4"></path>
<path d="M112.406 30.988C111.485 30.988 110.454 30.3326 109.975 29.3655C108.324 30.4686 106.438 30.988 104.126 30.988C97.758 30.988 92.7686 26.1811 92.7686 20.0435C92.7686 13.7415 97.758 8.80469 104.126 8.80469C110.329 8.80469 115.188 13.7415 115.188 20.0435V28.2352C115.188 29.8058 113.993 30.988 112.406 30.988ZM104.127 14.2275C100.941 14.2275 98.2491 16.8913 98.2491 20.0435C98.2491 23.0894 100.885 25.5665 104.127 25.5665C107.309 25.5665 109.709 23.1921 109.709 20.0435C109.708 16.8368 107.206 14.2275 104.127 14.2275Z" fill="#2B45D4"></path>
<path d="M61.9684 5.50688C60.4086 5.50688 59.1875 4.23188 59.1875 2.75282C59.1875 1.27624 60.4086 0 61.9684 0C63.4607 0 64.6843 1.27624 64.6843 2.75282C64.6843 4.23188 63.462 5.50688 61.9684 5.50688Z" fill="#2B45D4"></path>
<path d="M121.583 23.1717C122.913 23.1717 124 22.0364 124 20.7206C124 19.4048 122.913 18.2695 121.583 18.2695C120.194 18.2695 119.105 19.4048 119.105 20.7206C119.107 22.0364 120.194 23.1717 121.583 23.1717Z" fill="#FF0073"></path>
<path d="M121.744 26.8377C121.91 26.8476 122.075 26.8724 122.237 26.9156C122.94 27.1036 123.519 27.5995 123.808 28.2624C123.911 28.501 123.978 28.7509 123.991 29.0118C123.993 29.0217 123.993 29.3828 123.991 29.3964C123.985 29.4978 123.983 29.5992 123.975 29.6981C123.966 29.8119 123.956 29.9245 123.944 30.037C123.923 30.2076 123.9 30.3783 123.874 30.549C123.851 30.6887 123.826 30.8297 123.795 30.967C123.75 31.1574 123.698 31.3441 123.649 31.5334C123.541 31.9464 123.395 32.3446 123.215 32.7317C122.936 33.3352 122.595 33.8991 122.193 34.4296C121.71 35.0653 121.148 35.6267 120.516 36.1189C120.287 36.297 120.052 36.4664 119.804 36.6198C119.493 36.8127 119.172 36.9846 118.839 37.1416C118.525 37.29 118.201 37.4174 117.87 37.5287C117.448 37.6697 117.018 37.7785 116.58 37.8564C116.417 37.8861 116.251 37.9108 116.086 37.9343C115.971 37.9504 115.855 37.964 115.739 37.9714C115.664 37.9764 115.464 38.0061 115.204 38.016C115.031 38.0221 114.434 38.016 113.88 37.8193C113.578 37.713 113.319 37.5176 113.088 37.2789C112.684 36.8622 112.463 36.365 112.423 35.7887C112.42 35.7516 112.42 35.5228 112.423 35.4882C112.428 35.372 112.444 35.2557 112.47 35.1419C112.599 34.5694 112.899 34.1031 113.373 33.7495C113.774 33.4502 114.228 33.2956 114.729 33.2771C114.865 33.2721 115.001 33.2709 115.139 33.2696C115.314 33.2684 115.489 33.2486 115.66 33.2189C116.13 33.1398 116.576 32.9926 116.995 32.77C117.101 32.7131 117.208 32.6562 117.306 32.587C117.443 32.4881 117.576 32.3817 117.707 32.2729C117.953 32.0701 118.178 31.845 118.375 31.5915C118.74 31.1215 118.968 30.5885 119.119 30.0184C119.186 29.7624 119.209 29.4978 119.223 29.2319C119.228 29.128 119.233 29.0254 119.243 28.9227C119.267 28.6915 119.329 28.4714 119.422 28.2587C119.772 27.4585 120.558 26.8872 121.488 26.839C121.502 26.8365 121.728 26.8365 121.744 26.8377Z" fill="#FF0073"></path>
</svg>