<svg xmlns="http://www.w3.org/2000/svg" width="19" height="16" viewBox="0 0 19 16" fill="none" class="injected-svg" data-src="/icons/mail.svg" xmlns:xlink="http://www.w3.org/1999/xlink">
<path d="M1.25 7C1.80228 7 2.25 7.44772 2.25 8V13C2.25 13.5523 2.69772 14 3.25 14H15.25C15.8023 14 16.25 13.5523 16.25 13V8C16.25 7.44772 16.6977 7 17.25 7C17.8023 7 18.25 7.44772 18.25 8V13C18.25 14.6569 16.9069 16 15.25 16H3.25C1.59315 16 0.25 14.6569 0.25 13V8C0.25 7.44772 0.697715 7 1.25 7Z" fill="#2B45D4" fill-opacity="0.56"></path>
<path fill-rule="evenodd" clip-rule="evenodd" d="M0.25 2.9807C0.25 1.3345 1.5845 0 3.2307 0H15.2693C16.9155 0 18.25 1.3345 18.25 2.9807C18.25 3.94332 17.7851 4.84668 17.0018 5.40619L11.3528 9.4412C10.844 9.80463 10.2343 10 9.60907 10H8.89093C8.26566 10 7.65602 9.80463 7.14722 9.4412L1.4982 5.40619C0.714886 4.84668 0.25 3.94332 0.25 2.9807ZM3.2307 2C2.68907 2 2.25 2.43907 2.25 2.9807C2.25 3.29741 2.40296 3.59464 2.66068 3.77872L8.30969 7.81373C8.47929 7.93488 8.68251 8 8.89093 8H9.60907C9.81749 8 10.0207 7.93488 10.1903 7.81373L15.8393 3.77872C16.097 3.59464 16.25 3.29742 16.25 2.9807C16.25 2.43907 15.8109 2 15.2693 2H3.2307Z" fill="#2B45D4" fill-opacity="0.56"></path>
</svg>