<svg xmlns="http://www.w3.org/2000/svg" width="206" height="60" viewBox="0 0 206 60" fill="none" class="injected-svg" data-src="/images/logos/octopus-logo.svg" xmlns:xlink="http://www.w3.org/1999/xlink">
<g clip-path="url(#clip0-116)" fill="none">
<path d="M77.4314 33.8936C77.4314 29.0051 75.6545 26.5596 72.1014 26.5596C68.5482 26.5596 66.7716 29.0051 66.7716 33.8936C66.7716 38.7821 68.5482 41.2277 72.1014 41.2277C75.6545 41.2277 77.4314 38.7821 77.4314 33.8936ZM79.0534 41.5933C77.3794 43.4083 75.062 44.3145 72.1014 44.3145C69.1402 44.3145 66.8228 43.4083 65.1493 41.5933C63.4754 39.7783 62.6392 37.2136 62.6392 33.8936C62.6392 30.5737 63.4754 28.0062 65.1493 26.1939C66.8228 24.3789 69.1402 23.4728 72.1014 23.4728C75.062 23.4728 77.3794 24.3789 79.0534 26.1939C80.7268 28.0062 81.5638 30.5737 81.5638 33.8936C81.5638 37.2136 80.7268 39.7783 79.0534 41.5933Z" fill="#2B45D4"></path>
<path d="M94.4633 44.3145C91.3736 44.3145 88.9918 43.4348 87.3183 41.6702C85.6443 39.9082 84.8079 37.3169 84.8079 33.8936C84.8079 30.5233 85.6189 27.9426 87.2412 26.1542C88.8632 24.3657 91.1419 23.4728 94.0773 23.4728C95.4416 23.4728 96.7421 23.5629 97.9781 23.743C98.4667 23.8199 98.8723 24.0504 99.1944 24.4372C99.5163 24.8214 99.6772 25.2745 99.6772 25.7885C99.6772 26.2257 99.5036 26.5728 99.156 26.8298C98.8084 27.0868 98.4155 27.1636 97.9781 27.0603C96.7161 26.7795 95.5188 26.6364 94.3862 26.6364C92.6096 26.6364 91.2771 27.2167 90.3889 28.3745C89.5005 29.5324 89.0564 31.3712 89.0564 33.8936C89.0564 36.4664 89.5257 38.3184 90.4661 39.4525C91.4057 40.5838 92.8413 41.1509 94.7725 41.1509C95.9822 41.1509 97.1411 40.9839 98.2485 40.6474C98.6599 40.5203 99.0335 40.5785 99.3684 40.8223C99.7027 41.0661 99.8705 41.3946 99.8705 41.8053C99.8705 42.322 99.7027 42.783 99.3684 43.1963C99.0335 43.607 98.6213 43.864 98.1326 43.9674C96.8966 44.1979 95.6733 44.3145 94.4633 44.3145Z" fill="#2B45D4"></path>
<path d="M105.818 27.7174C105.38 27.7174 105.013 27.5638 104.717 27.2537C104.421 26.9464 104.273 26.586 104.273 26.1727C104.273 25.762 104.421 25.4017 104.717 25.0917C105.013 24.7843 105.38 24.6307 105.818 24.6307H107.98C108.212 24.6307 108.328 24.5141 108.328 24.2835V19.3023C108.328 18.7379 108.521 18.261 108.908 17.8742C109.294 17.49 109.77 17.2966 110.336 17.2966C110.903 17.2966 111.385 17.49 111.785 17.8742C112.184 18.261 112.383 18.7379 112.383 19.3023V24.2835C112.383 24.5141 112.499 24.6307 112.731 24.6307H117.79C118.228 24.6307 118.595 24.7843 118.891 25.0917C119.187 25.4017 119.335 25.762 119.335 26.1727C119.335 26.586 119.187 26.9464 118.891 27.2537C118.595 27.5638 118.228 27.7174 117.79 27.7174H112.731C112.499 27.7174 112.383 27.834 112.383 28.0645V36.9804C112.383 38.7318 112.589 39.8764 113.001 40.4169C113.413 40.9574 114.237 41.2277 115.473 41.2277C116.065 41.2277 116.632 41.188 117.172 41.1111C117.584 41.0608 117.951 41.1508 118.273 41.3814C118.595 41.6119 118.756 41.9219 118.756 42.3087C118.756 42.7697 118.601 43.1831 118.293 43.5434C117.984 43.9038 117.597 44.1078 117.134 44.1608C116.052 44.2641 115.241 44.3145 114.701 44.3145C112.332 44.3145 110.677 43.8137 109.738 42.8095C108.798 41.8053 108.328 39.993 108.328 37.3672V28.0645C108.328 27.834 108.212 27.7174 107.98 27.7174H105.818Z" fill="#2B45D4"></path>
<path d="M137.951 33.8936C137.951 29.0051 136.174 26.5596 132.621 26.5596C129.068 26.5596 127.291 29.0051 127.291 33.8936C127.291 38.7821 129.068 41.2277 132.621 41.2277C136.174 41.2277 137.951 38.7821 137.951 33.8936ZM139.573 41.5933C137.899 43.4083 135.582 44.3145 132.621 44.3145C129.66 44.3145 127.343 43.4083 125.669 41.5933C123.995 39.7783 123.159 37.2136 123.159 33.8936C123.159 30.5737 123.995 28.0062 125.669 26.1939C127.343 24.3789 129.66 23.4728 132.621 23.4728C135.582 23.4728 137.899 24.3789 139.573 26.1939C141.246 28.0062 142.083 30.5737 142.083 33.8936C142.083 37.2136 141.246 39.7783 139.573 41.5933Z" fill="#2B45D4"></path>
<path d="M150.348 30.9976V36.787C150.348 37.9713 150.844 39.0073 151.835 39.8949C152.826 40.7825 154.004 41.2277 155.369 41.2277C156.914 41.2277 158.137 40.6103 159.038 39.373C159.939 38.1382 160.39 36.3127 160.39 33.8936C160.39 29.0051 158.716 26.5595 155.369 26.5595C154.004 26.5595 152.826 27.0047 151.835 27.8923C150.844 28.7799 150.348 29.8159 150.348 30.9976ZM149.75 51.8419C149.35 52.2261 148.867 52.4196 148.302 52.4196C147.735 52.4196 147.259 52.2261 146.872 51.8419C146.486 51.4551 146.293 50.9782 146.293 50.4138V25.7488C146.293 25.2347 146.48 24.7896 146.853 24.4187C147.226 24.0451 147.67 23.857 148.186 23.857C148.7 23.857 149.151 24.0451 149.537 24.4187C149.924 24.7896 150.129 25.2347 150.155 25.7488V26.329C150.155 26.3529 150.168 26.3661 150.194 26.3661C150.219 26.3661 150.245 26.3529 150.271 26.329C151.223 25.2745 152.164 24.5326 153.091 24.1087C154.018 23.6847 155.099 23.4728 156.335 23.4728C158.78 23.4728 160.744 24.3842 162.225 26.2124C163.705 28.0406 164.445 30.6002 164.445 33.8936C164.445 37.0837 163.679 39.6194 162.147 41.4979C160.615 43.3765 158.677 44.3144 156.335 44.3144C154.043 44.3144 152.086 43.4904 150.464 41.845C150.438 41.8185 150.412 41.8053 150.387 41.8053C150.361 41.8053 150.348 41.8185 150.348 41.845V50.4138C150.348 50.9782 150.149 51.4551 149.75 51.8419Z" fill="#2B45D4"></path>
<path d="M175.221 44.3145C172.955 44.3145 171.294 43.6918 170.239 42.4439C169.183 41.1959 168.656 39.116 168.656 36.2094V25.8256C168.656 25.2851 168.849 24.8214 169.235 24.4372C169.621 24.0504 170.085 23.857 170.625 23.857C171.166 23.857 171.635 24.0504 172.035 24.4372C172.434 24.8214 172.633 25.2851 172.633 25.8256V35.6291C172.633 37.7673 172.917 39.2325 173.483 40.0301C174.049 40.8276 175.015 41.2277 176.38 41.2277C177.59 41.2277 178.729 40.6925 179.798 39.6247C180.866 38.5569 181.401 37.4202 181.401 36.2094V25.8654C181.401 25.2983 181.6 24.8214 181.999 24.4372C182.398 24.0504 182.881 23.857 183.448 23.857C184.014 23.857 184.49 24.0504 184.877 24.4372C185.263 24.8214 185.456 25.2983 185.456 25.8654V42.0385C185.456 42.5525 185.269 42.9976 184.896 43.3685C184.523 43.7421 184.078 43.9276 183.564 43.9276C183.048 43.9276 182.598 43.7421 182.212 43.3685C181.825 42.9976 181.619 42.5525 181.594 42.0385V41.4582C181.594 41.4344 181.58 41.4211 181.555 41.4211C181.529 41.4211 181.503 41.4344 181.478 41.4582C179.649 43.3633 177.564 44.3145 175.221 44.3145Z" fill="#2B45D4"></path>
<path d="M197.582 35.4383C194.956 34.7945 193.109 33.9758 192.04 32.9848C190.972 31.9965 190.438 30.7539 190.438 29.2621C190.438 27.4604 191.088 26.0455 192.388 25.0148C193.688 23.9868 195.613 23.4728 198.162 23.4728C199.81 23.4728 201.47 23.6529 203.144 24.0133C203.608 24.114 203.987 24.3657 204.283 24.7658C204.579 25.1632 204.728 25.6083 204.728 26.0959C204.728 26.5092 204.56 26.8298 204.226 27.0603C203.891 27.2935 203.531 27.3438 203.144 27.2166C201.522 26.7795 199.99 26.5596 198.548 26.5596C195.845 26.5596 194.493 27.3306 194.493 28.8753C194.493 29.6463 194.75 30.2796 195.265 30.7671C195.78 31.2546 196.681 31.6547 197.969 31.9621C200.929 32.6589 202.925 33.4882 203.955 34.4527C204.985 35.4171 205.5 36.84 205.5 38.7185C205.5 40.4672 204.824 41.8371 203.472 42.828C202.121 43.819 200.157 44.3145 197.582 44.3145C195.909 44.3145 194.235 44.0972 192.562 43.66C192.098 43.5302 191.725 43.2652 191.442 42.8678C191.158 42.4677 191.017 42.0252 191.017 41.535C191.017 41.1509 191.177 40.8408 191.5 40.6103C191.821 40.3772 192.162 40.3268 192.523 40.454C194.119 40.9707 195.677 41.2277 197.196 41.2277C200.029 41.2277 201.445 40.3904 201.445 38.7185C201.445 37.921 201.161 37.2718 200.595 36.7684C200.029 36.2676 199.024 35.8225 197.582 35.4383Z" fill="#2B45D4"></path>
<path d="M11.5689 45.7877C10.3358 45.7877 9.33287 44.7861 9.33287 43.554C9.33287 42.322 10.3358 41.3178 11.5689 41.3178C12.8017 41.3178 13.8049 42.322 13.8049 43.554C13.8049 44.7861 12.8017 45.7877 11.5689 45.7877ZM3.30543 27.7174C3.30543 26.4854 4.30844 25.4812 5.54137 25.4812C6.77429 25.4812 7.7774 26.4854 7.7774 27.7174C7.7774 28.9495 6.77429 29.951 5.54137 29.951C4.30844 29.951 3.30543 28.9495 3.30543 27.7174ZM13.902 30.0491H12.5952C11.667 30.0491 10.9496 29.2409 11.0501 28.3189C11.0837 28.0115 11.092 27.6936 11.0721 27.3703C10.9003 24.5618 8.60167 22.307 5.78867 22.1851C2.6158 22.0473 0 24.5777 0 27.7174C0 30.7433 2.42878 33.1994 5.44412 33.2524V33.2551H13.902V36.5035C13.902 37.4308 13.0949 38.1489 12.1723 38.0482C11.8629 38.0137 11.5456 38.0058 11.2229 38.027C8.41237 38.1992 6.15528 40.4938 6.03287 43.305C5.89472 46.4765 8.42642 49.0917 11.5689 49.0917C14.6292 49.0917 17.1102 46.6117 17.1102 43.554C17.1102 43.3898 17.1017 43.2281 17.0877 43.0665H17.1102V33.2551V31.6044C17.1102 30.7459 16.4137 30.0491 15.5548 30.0491H13.902Z" fill="#FF0073"></path>
<path d="M48.0252 29.7841C46.7923 29.7841 45.7891 28.7826 45.7891 27.5505C45.7891 26.3158 46.7923 25.3143 48.0252 25.3143C49.2582 25.3143 50.2612 26.3158 50.2612 27.5505C50.2612 28.7826 49.2582 29.7841 48.0252 29.7841ZM41.9979 41.1509C43.2307 41.1509 44.2336 42.1524 44.2336 43.3845C44.2336 44.6192 43.2307 45.6207 41.9979 45.6207C40.7648 45.6207 39.7618 44.6192 39.7618 43.3845C39.7618 42.1524 40.7648 41.1509 41.9979 41.1509ZM53.5665 27.5505C53.5665 24.4081 50.951 21.8778 47.7781 22.0155C44.9651 22.1401 42.6665 24.3949 42.4944 27.2034C42.4746 27.5267 42.4828 27.842 42.5165 28.152C42.6169 29.074 41.8995 29.8822 40.9716 29.8822H39.6645H38.0118C37.1528 29.8822 36.4563 30.5764 36.4563 31.4348V33.0882V42.8996H36.4788C36.4648 43.0612 36.4563 43.2229 36.4563 43.3845C36.4563 46.5322 39.0799 49.0652 42.2593 48.9168C45.0982 48.787 47.4024 46.4845 47.5331 43.6468C47.6794 40.4699 45.1449 37.8468 41.9979 37.8468C41.7929 37.8468 41.5907 37.8601 41.3918 37.8813C40.47 37.982 39.6645 37.2639 39.6645 36.3366V33.0882H48.1225V33.0855C51.1379 33.0325 53.5665 30.5763 53.5665 27.5505Z" fill="#FF0073"></path>
<path d="M34.5121 56.696C33.2793 56.696 32.2763 55.6944 32.2763 54.4624C32.2763 53.2303 33.2793 52.2261 34.5121 52.2261C35.7452 52.2261 36.7482 53.2303 36.7482 54.4624C36.7482 55.6944 35.7452 56.696 34.5121 56.696ZM18.7631 56.696C17.53 56.696 16.527 55.6944 16.527 54.4624C16.527 53.2303 17.53 52.2261 18.7631 52.2261C19.9959 52.2261 20.9991 53.2303 20.9991 54.4624C20.9991 55.6944 19.9959 56.696 18.7631 56.696ZM34.8584 48.9353C34.5354 48.9141 34.2184 48.9221 33.9087 48.9565C32.9861 49.0572 32.179 48.3392 32.179 47.4118V29.074C32.179 28.2155 32.8753 27.5187 33.7345 27.5187H38.1806C39.0396 27.5187 39.7361 26.8245 39.7361 25.966V12.3815L39.7358 12.371C39.735 12.2438 39.6963 9.23914 38.0597 6.22921C36.5135 3.38884 33.2509 0 26.4887 0C22.5127 0 19.3758 1.18437 17.1655 3.52396C13.8239 7.05851 13.9029 11.9629 13.9281 12.5909V25.966C13.9281 26.8245 14.6245 27.5187 15.4835 27.5187H19.5407C20.3997 27.5187 21.0962 28.2155 21.0962 29.074V47.4118C21.0962 48.3392 20.2891 49.0572 19.3665 48.9565C19.0568 48.9221 18.7398 48.9141 18.4168 48.9353C15.6065 49.1049 13.3496 51.4021 13.2271 54.2133C13.0889 57.3849 15.6206 60 18.7631 60C21.8234 60 24.3044 57.52 24.3044 54.4624C24.3044 54.3643 24.3017 54.2663 24.2967 54.1709H24.3044V27.5187H24.3094V25.5765C24.3094 24.718 23.613 24.0212 22.754 24.0212H18.9834C18.1241 24.0212 17.4277 23.327 17.4277 22.4685V12.5538L17.4282 12.5114L17.4253 12.461C17.4234 12.4213 17.2612 8.4946 19.7284 5.90595C21.251 4.30825 23.5257 3.49746 26.4887 3.49746C30.4884 3.49746 33.3276 4.94413 34.9278 7.79774C36.1705 10.0128 36.2344 12.318 36.2362 12.3921V22.4685C36.2362 23.327 35.5397 24.0212 34.6807 24.0212H30.5647C29.7063 24.0212 29.0103 24.718 29.009 25.5739L28.9708 54.1709H28.9785C28.9735 54.2663 28.9708 54.3643 28.9708 54.4624C28.9708 57.52 31.4518 60 34.5121 60C37.6546 60 40.1863 57.3849 40.0481 54.2133C39.9259 51.4021 37.6689 49.1049 34.8584 48.9353Z" fill="#FF0073"></path>
</g>
<defs>
<clipPath id="clip0-116">
<rect width="205.5" height="60" fill="white"></rect>
</clipPath>
</defs>
</svg>