<svg xmlns="http://www.w3.org/2000/svg" width="190" height="141" viewBox="0 0 190 141" fill="none" class="injected-svg" data-src="/images/logos/logo-abbreviation.svg" xmlns:xlink="http://www.w3.org/1999/xlink">
<path d="M134.228 107.58C127.06 107.58 121.23 101.625 121.23 94.3056V43.5108C121.23 34.0476 113.487 26.3473 103.969 26.3473C94.451 26.3473 86.7094 34.0476 86.7094 43.5108V94.3036C86.7094 101.623 80.88 107.578 73.712 107.578C66.4356 107.578 60.5156 101.623 60.5156 94.3036V43.5108C60.5156 34.0476 52.8627 26.3473 43.4552 26.3473C33.9374 26.3473 26.1938 34.0476 26.1938 43.5108V94.3036C26.1938 101.623 20.3644 107.578 13.1964 107.578C5.79587 107.578 0 101.748 0 94.3036V43.5108C0 19.5175 19.493 0 43.4552 0C54.8616 0 65.7023 4.4897 73.712 12.428C81.7218 4.4897 92.5624 0 103.969 0C127.929 0 147.422 19.5195 147.422 43.5108C147.422 43.7349 147.422 44.0463 147.371 44.4032C147.422 44.7681 147.422 45.0735 147.422 45.3234V94.3036C147.424 101.625 141.504 107.58 134.228 107.58Z" fill="#FFFFFF"></path>
<path d="M178.523 69.3224C184.835 69.3224 190 63.8391 190 57.4893C190 51.1395 184.835 45.6562 178.523 45.6562C171.925 45.6562 166.762 51.1395 166.762 57.4893C166.762 63.8391 171.925 69.3224 178.523 69.3224Z" fill="#FF0073"></path>
<path d="M179.283 87.0221C180.076 87.0677 180.857 87.1907 181.623 87.3989C184.967 88.3092 187.719 90.7027 189.085 93.8975C189.58 95.0536 189.897 96.2574 189.962 97.5206C189.964 97.5702 189.968 99.3073 189.964 99.3748C189.937 99.8626 189.923 100.35 189.888 100.838C189.848 101.384 189.805 101.929 189.738 102.47C189.637 103.295 189.527 104.12 189.399 104.939C189.294 105.616 189.18 106.294 189.026 106.962C188.815 107.878 188.561 108.784 188.328 109.697C187.822 111.69 187.126 113.615 186.274 115.485C184.949 118.395 183.323 121.123 181.415 123.681C179.12 126.757 176.453 129.464 173.446 131.838C172.358 132.697 171.242 133.516 170.071 134.255C168.595 135.187 167.063 136.014 165.492 136.77C163.993 137.49 162.454 138.102 160.881 138.642C158.88 139.326 156.839 139.85 154.759 140.226C153.981 140.367 153.198 140.488 152.414 140.599C151.863 140.678 151.311 140.744 150.76 140.782C150.407 140.807 149.452 140.948 148.22 140.994C147.404 141.023 144.565 140.994 141.936 140.05C140.496 139.532 139.264 138.594 138.166 137.442C136.25 135.431 135.197 133.026 135.008 130.243C134.996 130.071 134.998 128.968 135.008 128.796C135.04 128.231 135.113 127.671 135.235 127.122C135.85 124.356 137.277 122.105 139.525 120.395C141.425 118.95 143.584 118.206 145.965 118.117C146.614 118.093 147.26 118.083 147.909 118.081C148.745 118.077 149.569 117.978 150.391 117.839C152.62 117.459 154.738 116.745 156.729 115.666C157.232 115.394 157.74 115.116 158.203 114.783C158.86 114.309 159.489 113.792 160.11 113.268C161.279 112.283 162.347 111.198 163.28 109.978C165.015 107.708 166.101 105.13 166.811 102.381C167.132 101.14 167.244 99.8626 167.307 98.5815C167.331 98.0818 167.355 97.5821 167.404 97.0843C167.516 95.9718 167.812 94.9049 168.256 93.8796C169.919 90.0206 173.653 87.2601 178.063 87.0261C178.132 87.0182 179.209 87.0182 179.283 87.0221Z" fill="#FF0073"></path>
</svg>