<svg xmlns="http://www.w3.org/2000/svg" width="220" height="40" viewBox="0 0 220 40" fill="none" class="injected-svg" data-src="/images/logos/teleheath-logo.svg" xmlns:xlink="http://www.w3.org/1999/xlink">
<g clip-path="url(#clip0-117)" fill="none">
<path d="M52.9608 14.3496C52.5662 14.3496 52.2357 14.2112 51.9691 13.932C51.7024 13.6551 51.5691 13.3305 51.5691 12.9582C51.5691 12.5883 51.7024 12.2637 51.9691 11.9868C52.2357 11.7076 52.5662 11.5692 52.9608 11.5692H54.9093C55.118 11.5692 55.2224 11.4642 55.2224 11.2565V6.76963C55.2224 6.26128 55.3962 5.83168 55.7442 5.48323C56.0922 5.13717 56.5212 4.96294 57.0316 4.96294C57.5415 4.96294 57.9764 5.13717 58.3363 5.48323C58.6958 5.83168 58.8756 6.26128 58.8756 6.76963V11.2565C58.8756 11.4642 58.98 11.5692 59.1888 11.5692H63.7468C64.1408 11.5692 64.4714 11.7076 64.7384 11.9868C65.0047 12.2637 65.1385 12.5883 65.1385 12.9582C65.1385 13.3305 65.0047 13.6551 64.7384 13.932C64.4714 14.2112 64.1408 14.3496 63.7468 14.3496H59.1888C58.98 14.3496 58.8756 14.4546 58.8756 14.6623V22.6933C58.8756 24.2709 59.061 25.3019 59.4324 25.7888C59.8031 26.2757 60.5458 26.5191 61.6591 26.5191C62.1924 26.5191 62.703 26.4833 63.19 26.4142C63.5609 26.3687 63.8913 26.45 64.1817 26.6576C64.4714 26.8676 64.6164 27.1444 64.6164 27.4929C64.6164 27.9106 64.4774 28.2805 64.1989 28.6051C63.9206 28.9296 63.5726 29.1134 63.1552 29.1611C62.1809 29.2543 61.4503 29.2996 60.9633 29.2996C58.8291 29.2996 57.3387 28.8485 56.4923 27.9439C55.6454 27.0394 55.2224 25.4069 55.2224 23.0418V14.6623C55.2224 14.4546 55.118 14.3496 54.9093 14.3496H52.9608Z" fill="#2B45D4"></path>
<path d="M76.7589 13.2374C74.1147 13.2374 72.6299 14.8031 72.3053 17.9319C72.2587 18.1397 72.3516 18.2446 72.5835 18.2446H80.3773C80.5627 18.2446 80.6556 18.1397 80.6556 17.9319C80.5166 14.8031 79.2173 13.2374 76.7589 13.2374ZM77.6285 29.2996C74.7288 29.2996 72.4968 28.512 70.931 26.9368C69.3654 25.3593 68.5825 23.0203 68.5825 19.9129C68.5825 16.8079 69.2837 14.4666 70.6874 12.889C72.0906 11.3138 74.1147 10.5262 76.7589 10.5262C81.5832 10.5262 84.0767 13.3544 84.2393 19.0084C84.2623 19.5645 84.0655 20.0299 83.648 20.3998C83.2303 20.772 82.7433 20.9558 82.1865 20.9558H72.5489C72.3631 20.9558 72.2704 21.0489 72.2704 21.2351C72.5489 24.8032 74.4505 26.5883 77.9765 26.5883C79.2058 26.5883 80.4122 26.3926 81.5952 25.9965C81.9429 25.8819 82.2675 25.9272 82.5691 26.1373C82.8706 26.3449 83.0215 26.6361 83.0215 27.006C83.0215 27.4452 82.8823 27.839 82.604 28.1875C82.3258 28.5358 81.9658 28.7673 81.5254 28.8843C80.2495 29.1611 78.9507 29.2996 77.6285 29.2996Z" fill="#2B45D4"></path>
<path d="M92.6766 28.3951C92.2939 28.7673 91.8471 28.9535 91.3372 28.9535C90.8268 28.9535 90.3804 28.7673 89.9977 28.3951C89.6149 28.0251 89.4236 27.574 89.4236 27.0394V4.78871C89.4236 4.25649 89.6149 3.80303 89.9977 3.43309C90.3804 3.06316 90.8268 2.877 91.3372 2.877C91.8471 2.877 92.2939 3.06316 92.6766 3.43309C93.0594 3.80303 93.2507 4.25649 93.2507 4.78871V27.0394C93.2507 27.574 93.0594 28.0251 92.6766 28.3951Z" fill="#2B45D4"></path>
<path d="M106.437 13.2374C103.793 13.2374 102.308 14.8031 101.984 17.9319C101.937 18.1397 102.03 18.2446 102.262 18.2446H110.055C110.241 18.2446 110.334 18.1397 110.334 17.9319C110.195 14.8031 108.895 13.2374 106.437 13.2374ZM107.307 29.2996C104.407 29.2996 102.175 28.512 100.609 26.9368C99.0434 25.3593 98.2605 23.0203 98.2605 19.9129C98.2605 16.8079 98.9617 14.4666 100.366 12.889C101.769 11.3138 103.793 10.5262 106.437 10.5262C111.261 10.5262 113.755 13.3544 113.917 19.0084C113.94 19.5645 113.743 20.0299 113.326 20.3998C112.908 20.772 112.421 20.9558 111.865 20.9558H102.227C102.041 20.9558 101.949 21.0489 101.949 21.2351C102.227 24.8032 104.129 26.5883 107.655 26.5883C108.884 26.5883 110.09 26.3926 111.273 25.9965C111.621 25.8819 111.946 25.9272 112.247 26.1373C112.549 26.3449 112.7 26.6361 112.7 27.006C112.7 27.4452 112.56 27.839 112.282 28.1875C112.004 28.5358 111.644 28.7673 111.204 28.8843C109.928 29.1611 108.629 29.2996 107.307 29.2996Z" fill="#2B45D4"></path>
<path d="M121.171 28.4309C120.812 28.7792 120.377 28.9535 119.867 28.9535C119.356 28.9535 118.927 28.7792 118.579 28.4309C118.231 28.0824 118.058 27.6552 118.058 27.1444V4.6837C118.058 4.17534 118.231 3.74575 118.579 3.39729C118.927 3.05123 119.356 2.877 119.867 2.877C120.377 2.877 120.812 3.05123 121.171 3.39729C121.531 3.74575 121.711 4.17534 121.711 4.6837V13.099C121.711 13.1229 121.722 13.1324 121.746 13.1324C121.768 13.1324 121.792 13.1229 121.815 13.099C123.438 11.383 125.26 10.5262 127.278 10.5262C129.388 10.5262 130.931 11.1109 131.905 12.2804C132.879 13.4522 133.366 15.4165 133.366 18.1754V27.1802C133.366 27.6671 133.193 28.0824 132.845 28.4309C132.497 28.7792 132.079 28.9535 131.592 28.9535C131.105 28.9535 130.687 28.7792 130.339 28.4309C129.992 28.0824 129.818 27.6671 129.818 27.1802V18.8699C129.818 16.7147 129.562 15.278 129.052 14.5596C128.542 13.8413 127.602 13.4809 126.234 13.4809C125.167 13.4809 124.146 13.9845 123.172 14.994C122.198 16.0012 121.711 17.0608 121.711 18.1754V27.1444C121.711 27.6552 121.531 28.0824 121.171 28.4309Z" fill="#2B45D4"></path>
<path d="M145.161 13.2374C142.517 13.2374 141.032 14.8031 140.708 17.9319C140.661 18.1397 140.754 18.2446 140.986 18.2446H148.78C148.965 18.2446 149.058 18.1397 149.058 17.9319C148.919 14.8031 147.62 13.2374 145.161 13.2374ZM146.031 29.2996C143.131 29.2996 140.899 28.512 139.333 26.9368C137.768 25.3593 136.985 23.0203 136.985 19.9129C136.985 16.8079 137.686 14.4666 139.09 12.889C140.493 11.3138 142.517 10.5262 145.161 10.5262C149.986 10.5262 152.479 13.3544 152.642 19.0084C152.665 19.5645 152.468 20.0299 152.05 20.3998C151.633 20.772 151.146 20.9558 150.589 20.9558H140.951C140.765 20.9558 140.673 21.0489 140.673 21.2351C140.951 24.8032 142.853 26.5883 146.379 26.5883C147.608 26.5883 148.815 26.3926 149.998 25.9965C150.345 25.8819 150.67 25.9272 150.972 26.1373C151.273 26.3449 151.424 26.6361 151.424 27.006C151.424 27.4452 151.285 27.839 151.007 28.1875C150.728 28.5358 150.368 28.7673 149.928 28.8843C148.652 29.1611 147.353 29.2996 146.031 29.2996Z" fill="#2B45D4"></path>
<path d="M165.132 19.8437C163.23 19.8437 161.798 20.1611 160.835 20.7983C159.873 21.438 159.391 22.2995 159.391 23.3903C159.391 24.2471 159.646 24.9535 160.157 25.5095C160.667 26.0657 161.282 26.3449 162.001 26.3449C163.532 26.3449 164.755 25.8628 165.672 24.9009C166.588 23.9415 167.046 22.6241 167.046 20.9558V20.1205C167.046 19.9367 166.941 19.8437 166.733 19.8437H165.132ZM161.131 29.2996C159.553 29.2996 158.261 28.7912 157.252 27.7698C156.243 26.7506 155.738 25.4069 155.738 23.7363C155.738 21.6981 156.515 20.1157 158.069 18.9917C159.623 17.8675 161.978 17.3043 165.132 17.3043H166.733C166.941 17.3043 167.046 17.2017 167.046 16.9916V16.6098C167.046 15.383 166.756 14.5239 166.176 14.037C165.596 13.5501 164.552 13.3067 163.045 13.3067C161.699 13.3067 160.099 13.5859 158.243 14.142C157.895 14.2565 157.565 14.2064 157.252 13.9845C156.938 13.7649 156.782 13.469 156.782 13.099C156.782 12.636 156.921 12.2184 157.2 11.846C157.478 11.4761 157.837 11.2446 158.278 11.1515C159.948 10.7339 161.537 10.5262 163.045 10.5262C165.967 10.5262 167.974 11.0465 169.064 12.0895C170.154 13.1324 170.699 15.0441 170.699 17.827V27.2495C170.699 27.7124 170.531 28.1134 170.195 28.4476C169.858 28.7841 169.458 28.9535 168.994 28.9535C168.53 28.9535 168.13 28.7841 167.794 28.4476C167.457 28.1134 167.278 27.7124 167.255 27.2495L167.22 26.3807C167.22 26.3568 167.208 26.3449 167.185 26.3449C167.138 26.3449 167.116 26.3568 167.116 26.3807C165.77 28.3258 163.775 29.2996 161.131 29.2996Z" fill="#2B45D4"></path>
<path d="M180.006 28.3951C179.623 28.7673 179.176 28.9535 178.667 28.9535C178.156 28.9535 177.71 28.7673 177.327 28.3951C176.944 28.0251 176.753 27.574 176.753 27.0394V4.78871C176.753 4.25649 176.944 3.80303 177.327 3.43309C177.71 3.06316 178.156 2.877 178.667 2.877C179.176 2.877 179.623 3.06316 180.006 3.43309C180.389 3.80303 180.58 4.25649 180.58 4.78871V27.0394C180.58 27.574 180.389 28.0251 180.006 28.3951Z" fill="#2B45D4"></path>
<path d="M187.33 14.3496C186.935 14.3496 186.604 14.2112 186.338 13.932C186.071 13.6551 185.938 13.3305 185.938 12.9582C185.938 12.5883 186.071 12.2637 186.338 11.9868C186.604 11.7076 186.935 11.5692 187.33 11.5692H189.278C189.487 11.5692 189.591 11.4642 189.591 11.2565V6.76963C189.591 6.26128 189.765 5.83168 190.113 5.48323C190.461 5.13717 190.89 4.96294 191.4 4.96294C191.91 4.96294 192.345 5.13717 192.705 5.48323C193.065 5.83168 193.245 6.26128 193.245 6.76963V11.2565C193.245 11.4642 193.349 11.5692 193.558 11.5692H198.116C198.51 11.5692 198.84 11.7076 199.107 11.9868C199.374 12.2637 199.507 12.5883 199.507 12.9582C199.507 13.3305 199.374 13.6551 199.107 13.932C198.84 14.2112 198.51 14.3496 198.116 14.3496H193.558C193.349 14.3496 193.245 14.4546 193.245 14.6623V22.6933C193.245 24.2709 193.43 25.3019 193.801 25.7888C194.172 26.2757 194.914 26.5191 196.028 26.5191C196.561 26.5191 197.072 26.4833 197.559 26.4142C197.93 26.3687 198.26 26.45 198.55 26.6576C198.84 26.8676 198.985 27.1444 198.985 27.4929C198.985 27.9106 198.846 28.2805 198.568 28.6051C198.29 28.9296 197.942 29.1134 197.524 29.1611C196.55 29.2543 195.819 29.2996 195.332 29.2996C193.198 29.2996 191.708 28.8485 190.861 27.9439C190.014 27.0394 189.591 25.4069 189.591 23.0418V14.6623C189.591 14.4546 189.487 14.3496 189.278 14.3496H187.33Z" fill="#2B45D4"></path>
<path d="M207.805 28.4309C207.445 28.7792 207.01 28.9535 206.5 28.9535C205.99 28.9535 205.561 28.7792 205.213 28.4309C204.865 28.0824 204.691 27.6552 204.691 27.1444V4.6837C204.691 4.17534 204.865 3.74575 205.213 3.39729C205.561 3.05123 205.99 2.877 206.5 2.877C207.01 2.877 207.445 3.05123 207.805 3.39729C208.164 3.74575 208.344 4.17534 208.344 4.6837V13.099C208.344 13.1229 208.356 13.1324 208.379 13.1324C208.402 13.1324 208.425 13.1229 208.449 13.099C210.072 11.383 211.893 10.5262 213.911 10.5262C216.022 10.5262 217.565 11.1109 218.539 12.2804C219.513 13.4522 220 15.4165 220 18.1754V27.1802C220 27.6671 219.826 28.0824 219.478 28.4309C219.13 28.7792 218.713 28.9535 218.226 28.9535C217.738 28.9535 217.321 28.7792 216.973 28.4309C216.625 28.0824 216.451 27.6671 216.451 27.1802V18.8699C216.451 16.7147 216.196 15.278 215.686 14.5596C215.175 13.8413 214.236 13.4809 212.868 13.4809C211.8 13.4809 210.78 13.9845 209.806 14.994C208.831 16.0012 208.344 17.0608 208.344 18.1754V27.1444C208.344 27.6552 208.164 28.0824 207.805 28.4309Z" fill="#2B45D4"></path>
<path d="M28.268 38.1087C28.268 35.8056 25.567 36.0013 25.567 36.0013C25.567 36.0013 20.1 35.9774 17.3074 36.0155C16.5914 36.0251 16.3511 35.8509 16.3628 35.0991C16.4071 32.2376 16.3828 29.3759 16.3799 26.5143C16.3785 25.1277 15.2578 24.0059 13.8723 24.0036C11.6345 23.9964 7.10172 24.0059 5.2288 24.0108C4.76512 24.0131 4.39007 23.636 4.39007 23.173V16.9988C4.39007 16.5357 4.76557 16.161 5.22908 16.161C5.91973 16.1635 6.87502 16.1635 7.44515 16.161C11.0412 16.1419 14.6376 15.9868 18.2338 15.9892C19.1107 15.9892 19.8119 15.6742 20.1875 14.8508C20.5146 14.1324 20.511 13.3615 19.9662 12.7864C18.5516 11.2923 17.1064 9.82214 15.6018 8.42118C14.8533 7.72427 13.7524 7.85315 13.0266 8.54051C12.2748 9.25411 12.1942 10.3186 12.8007 11.2064C12.957 11.4355 13.3177 11.5548 13.2512 11.9653C10.7093 11.9653 4.59643 12.0632 1.64696 12.1133C0.732191 12.13 0 12.8747 0 13.7887V26.6886C0 27.6122 0.748704 28.364 1.67411 28.364C4.19405 28.3664 8.86557 28.3712 10.7354 28.3807C11.454 28.3831 12.0377 28.9678 12.0412 29.6862C12.0502 31.5311 12.0554 35.9058 12.0575 38.3211C12.0583 39.2447 12.8087 39.9941 13.7341 39.9941H25.567C25.567 39.9941 28.268 40.2041 28.268 38.1087Z" fill="#FF0073"></path>
<path d="M12.1548 1.89131C12.1548 4.19443 14.856 3.99872 14.856 3.99872C14.856 3.99872 20.3229 4.02259 23.1155 3.9844C23.8317 3.97247 24.0719 4.14669 24.0602 4.90087C24.016 7.76246 24.0403 10.6241 24.0432 13.4856C24.0446 14.8699 25.1653 15.994 26.5505 15.9964C28.7885 16.0012 33.3214 15.9916 35.1941 15.9869C35.6579 15.9869 36.0329 16.3615 36.0329 16.8246V22.9988C36.0329 23.4642 35.6572 23.8389 35.1941 23.8366C34.5032 23.8366 33.548 23.8366 32.9777 23.8389C29.3817 23.858 25.7853 24.0131 22.1892 24.0108C21.3123 24.0108 20.611 24.3234 20.2356 25.1492C19.9085 25.8652 19.912 26.6361 20.457 27.2137C21.8713 28.7076 23.3165 30.1754 24.8214 31.5788C25.5699 32.2757 26.6707 32.1444 27.3965 31.4571C28.1481 30.7459 28.2289 29.6791 27.6222 28.7912C27.466 28.5621 27.1051 28.4451 27.1718 28.0322C29.7137 28.0322 35.8263 27.9367 38.776 27.8867C39.6907 27.87 40.423 27.1253 40.423 26.2113V13.3114C40.423 12.3854 39.6742 11.636 38.749 11.636C36.229 11.6336 31.5573 11.6288 29.6877 11.6193C28.969 11.6145 28.3853 11.0322 28.3817 10.3138C28.3726 8.46652 28.3676 4.09419 28.3655 1.6789C28.3645 0.75288 27.6143 0.00585938 26.6891 0.00585938H14.856C14.856 0.00585938 12.1548 -0.204163 12.1548 1.89131Z" fill="#FF0073"></path>
</g>
<defs>
<clipPath id="clip0-117">
<rect width="220" height="40" fill="white"></rect>
</clipPath>
</defs>
</svg>