<svg xmlns="http://www.w3.org/2000/svg" width="24" height="24" viewBox="0 0 24 24" fill="none" class="injected-svg" data-src="/icons/mai-ic-close.mono.svg" xmlns:xlink="http://www.w3.org/1999/xlink">
<path d="M13.4998 11.9998L17.8998 16.3998C18.2998 16.7998 18.2998 17.3998 17.8998 17.7998L17.7998 17.8998C17.3998 18.2998 16.7998 18.2998 16.3998 17.8998L11.9998 13.4998L7.5998 17.8998C7.1998 18.2998 6.59981 18.2998 6.19981 17.8998L6.0998 17.7998C5.6998 17.3998 5.6998 16.7998 6.0998 16.3998L10.4998 11.9998L6.0998 7.5998C5.6998 7.1998 5.6998 6.59981 6.0998 6.19981L6.19981 6.0998C6.59981 5.6998 7.1998 5.6998 7.5998 6.0998L11.9998 10.4998L16.3998 6.0998C16.7998 5.6998 17.3998 5.6998 17.7998 6.0998L17.8998 6.19981C18.2998 6.59981 18.2998 7.1998 17.8998 7.5998L13.4998 11.9998Z" fill="#2B45D4"></path>
</svg>